<svg width="1024" height="1024" viewBox="0 0 1024 1024" fill="none" xmlns="http://www.w3.org/2000/svg">
  <!-- Cotton (icon B): paper squircle, cotton-candy gradient lollipop-off mark. -->
  <defs>
    <linearGradient id="cotton" x1="0" y1="0" x2="1024" y2="1024" gradientUnits="userSpaceOnUse">
      <stop offset="0" stop-color="#FF6FB5"/>
      <stop offset="0.52" stop-color="#FF9A6B"/>
      <stop offset="1" stop-color="#FFC857"/>
    </linearGradient>
  </defs>

  <rect x="64" y="64" width="896" height="896" rx="224" fill="#FAF8F3"/>
  <rect x="64.5" y="64.5" width="895" height="895" rx="223.5" stroke="#161616" stroke-opacity="0.10" stroke-width="3"/>

  <g transform="translate(212,212) scale(25)"
     fill="none" stroke="url(#cotton)" stroke-width="2"
     stroke-linecap="round" stroke-linejoin="round">
    <path d="M7.462 7.493a7 7 0 0 0 9.06 9.039m2.416 -1.57a7 7 0 1 0 -9.884 -9.915" />
    <path d="M21 10a3.5 3.5 0 0 0 -7 0" />
    <path d="M12.71 12.715a3.5 3.5 0 0 1 -5.71 -2.715" />
    <path d="M14 17c.838 0 1.607 -.294 2.209 -.785m1.291 -2.715a3.5 3.5 0 0 0 -3.5 -3.5" />
    <path d="M14 3a3.5 3.5 0 0 0 -3.5 3.5" />
    <path d="M3 21l6 -6" />
    <path d="M3 3l18 18" />
  </g>
</svg>
