<svg width="1024" height="1024" viewBox="0 0 1024 1024" fill="none" xmlns="http://www.w3.org/2000/svg">
  <!-- Ink: solid ink squircle, paper line-art stars-off mark. Flat, minimal, high-contrast. -->
  <rect x="64" y="64" width="896" height="896" rx="224" fill="#161616"/>
  <rect x="96" y="96" width="832" height="832" rx="192" stroke="#FAF8F3" stroke-opacity="0.08" stroke-width="4"/>

  <g transform="translate(212,212) scale(25)"
     fill="none" stroke="#FAF8F3" stroke-width="2"
     stroke-linecap="round" stroke-linejoin="round">
    <path d="M17.373 13.371l.076 -.154a.392 .392 0 0 1 .702 0l.907 1.831m.367 .39c.498 .071 1.245 .18 2.24 .324a.39 .39 0 0 1 .217 .665c-.326 .316 -.57 .553 -.732 .712m-.611 3.405a.39 .39 0 0 1 -.567 .411l-2.172 -1.138l-2.172 1.138a.392 .392 0 0 1 -.568 -.41l.415 -2.411l-1.757 -1.707a.389 .389 0 0 1 .217 -.665l1.601 -.232" />
    <path d="M6.2 19.817l-2.172 1.138a.392 .392 0 0 1 -.568 -.41l.415 -2.411l-1.757 -1.707a.389 .389 0 0 1 .217 -.665l2.428 -.352l1.086 -2.193a.392 .392 0 0 1 .702 0l1.086 2.193l2.428 .352a.39 .39 0 0 1 .217 .665l-1.757 1.707l.414 2.41a.39 .39 0 0 1 -.567 .411l-2.172 -1.138" />
    <path d="M9.557 5.556l1 -.146l1.086 -2.193a.392 .392 0 0 1 .702 0l1.086 2.193l2.428 .352a.39 .39 0 0 1 .217 .665l-1.757 1.707l.414 2.41a.39 .39 0 0 1 -.014 .187m-4.153 -.166l-.744 .39a.392 .392 0 0 1 -.568 -.41l.188 -1.093" />
    <path d="M3 3l18 18" />
  </g>
</svg>
